<svg width="25" height="30" viewBox="0 0 25 30" fill="none" xmlns="http://www.w3.org/2000/svg">
<path d="M24.2286 29.0001H3.47095V1.32324H18.2281V7.53342H24.2286V29.0001Z" fill="#FCFCFC" stroke="#818181" stroke-width="0.713321" stroke-miterlimit="10"/>
<path d="M24.1987 7.63389L18.1982 1.42799L18.5335 1L24.5661 7.18735L24.1987 7.63389Z" fill="#818181"/>
<path d="M12.6686 8.27344H1.42664C0.63873 8.27344 0 8.91217 0 9.70008V20.942C0 21.7299 0.63873 22.3687 1.42664 22.3687H12.6686C13.4565 22.3687 14.0952 21.7299 14.0952 20.942V9.70008C14.0952 8.91217 13.4565 8.27344 12.6686 8.27344Z" fill="#107C42"/>
<path d="M10.7662 19.961H8.888L3.32837 10.6821H5.24435L10.7662 19.961Z" fill="white"/>
<path d="M3.32837 19.961H5.20655L10.7662 10.6821H8.85019L3.32837 19.961Z" fill="white"/>
<path d="M18.2274 11.8774H14.832V13.3833H18.2274V11.8774Z" fill="#21A365"/>
<path d="M22.424 11.8774H19.0286V13.3833H22.424V11.8774Z" fill="#33C481"/>
<path d="M18.2274 14.1523H14.832V15.6582H18.2274V14.1523Z" fill="#107C42"/>
<path d="M22.424 14.1523H19.0286V15.6582H22.424V14.1523Z" fill="#21A365"/>
<path d="M18.2274 16.4263H14.832V17.9321H18.2274V16.4263Z" fill="#195D38"/>
<path d="M22.424 16.4263H19.0286V17.9321H22.424V16.4263Z" fill="#104B2B"/>
</svg>
