<svg width="360" height="326" viewBox="0 0 360 326" fill="none" xmlns="http://www.w3.org/2000/svg">
<path d="M53.0552 299.075C123.275 334.971 237.116 334.979 307.336 299.075C377.555 263.171 377.555 204.944 307.336 169.079C237.116 133.215 123.275 133.183 53.0552 169.079C-17.1642 204.976 -17.1642 263.202 53.0552 299.075Z" fill="#F5F5F5"/>
<path d="M98.2041 259.421L60.2938 237.684L110.245 209.595L98.4335 259.817" fill="#E0E0E0"/>
<path d="M308.736 246.116C329.481 246.116 346.298 236.976 346.298 225.7C346.298 214.425 329.481 205.284 308.736 205.284C287.991 205.284 271.174 214.425 271.174 225.7C271.174 236.976 287.991 246.116 308.736 246.116Z" fill="#E0E0E0"/>
<path d="M168.685 239.946L202.441 259.437C203.7 260.073 205.09 260.404 206.5 260.404C207.91 260.404 209.3 260.073 210.558 259.437L278.594 220.171C280.833 218.874 280.833 216.778 278.594 215.488L244.837 195.998C243.579 195.362 242.189 195.03 240.779 195.03C239.369 195.03 237.979 195.362 236.72 195.998L168.685 235.264C166.438 236.585 166.438 238.657 168.685 239.946Z" fill="#E0E0E0"/>
<path d="M42.8181 225.044C42.3197 218.898 39.5033 208.796 32.3517 199.178C24.7016 188.894 15.3664 182.455 8.43623 185.461C1.98073 188.269 4.42528 197.176 15.5563 205.972C23.3488 212.134 31.434 220.163 35.7851 229.853L42.8339 242.185L42.8181 225.044Z" fill="#044366"/>
<g opacity="0.1">
<path d="M42.8181 225.044C42.3197 218.898 39.5033 208.796 32.3517 199.178C24.7016 188.894 15.3664 182.455 8.43623 185.461C1.98073 188.269 4.42528 197.176 15.5563 205.972C23.3488 212.134 31.434 220.163 35.7851 229.853L42.8339 242.185L42.8181 225.044Z" fill="black"/>
</g>
<path d="M42.1931 229.735C42.1026 229.735 42.0143 229.706 41.9406 229.654C41.8669 229.601 41.8113 229.527 41.7817 229.442C35.5873 212.395 22.6921 195.143 11.7826 189.314C11.7307 189.287 11.6846 189.25 11.6469 189.205C11.6093 189.16 11.5808 189.108 11.5632 189.052C11.5455 188.997 11.5391 188.938 11.5442 188.879C11.5492 188.821 11.5658 188.764 11.5928 188.712C11.6198 188.661 11.6568 188.614 11.7016 188.577C11.7464 188.539 11.7982 188.511 11.8541 188.493C11.9099 188.475 11.9687 188.469 12.027 188.474C12.0853 188.479 12.1421 188.496 12.194 188.523C23.2696 194.447 36.3468 211.897 42.6045 229.133C42.6427 229.241 42.6367 229.36 42.5878 229.464C42.5389 229.568 42.4511 229.648 42.3434 229.687C42.2974 229.714 42.2461 229.73 42.1931 229.735Z" fill="white"/>
<path d="M42.1931 246.077C38.6143 248.89 34.358 250.713 29.8517 251.361C22.0751 252.579 18.6733 248.861 18.6733 248.861C18.6733 248.861 21.7349 241.568 26.1572 239.519C21.3779 240.589 16.8144 242.462 12.6608 245.056C12.6608 245.056 7.9141 245.128 6.02333 237.882C6.02333 237.882 8.83179 233.523 18.2698 231.166C18.2698 231.166 12.5342 229.719 4.25915 231.831C3.63417 232.076 0.99184 222.71 0.192814 218.383C-0.606213 214.057 1.12633 214.104 4.49648 213.202C7.86663 212.3 19.3378 211.739 21.4501 213.598C23.5624 215.457 24.6145 221.785 24.6145 221.785C24.6145 221.785 26.6319 218.201 26.1493 214.998C28.5007 214.327 31.0008 214.387 33.3168 215.172C37.1063 216.485 36.861 218.336 36.861 221.089C36.8773 223.863 36.4964 226.625 35.7297 229.291C35.7297 229.291 38.3483 227.029 38.4353 218.692C38.4353 218.692 43.5539 223.066 45.6108 226.831C47.6677 230.597 47.1534 240.445 42.1931 246.077Z" fill="#044366"/>
<path d="M42.1931 246.496C42.1107 246.497 42.0298 246.474 41.9598 246.431C41.8898 246.387 41.8335 246.325 41.7976 246.251C35.524 233.215 12.194 218.075 3.82403 216.445C3.71018 216.422 3.60991 216.356 3.54481 216.259C3.47971 216.163 3.45497 216.045 3.47594 215.931C3.48726 215.875 3.50956 215.822 3.54156 215.774C3.57355 215.727 3.61462 215.686 3.6624 215.654C3.71017 215.623 3.76372 215.601 3.81997 215.59C3.87621 215.579 3.93405 215.58 3.99016 215.591C12.5026 217.244 36.2123 232.63 42.5887 245.871C42.6379 245.976 42.6439 246.096 42.6054 246.206C42.567 246.315 42.4871 246.405 42.383 246.457C42.3238 246.485 42.2587 246.498 42.1931 246.496Z" fill="white"/>
<path d="M40.5792 107.807V249.81L173.115 173.296V45.1353L82.5795 97.3581L79.1777 85.4771L40.5792 107.807Z" fill="#37474F"/>
<path d="M40.5792 249.81L47.3749 125.115L179.91 48.6079L173.115 173.296L40.5792 249.81Z" fill="#F0F0F0"/>
<path d="M40.5792 249.81L52.5804 128.587L185.116 52.0804L173.115 173.296L40.5792 249.81Z" fill="#455A64"/>
<path d="M97.9509 259.975C97.5791 259.975 97.5237 259.548 97.5237 259.295V76.8551C97.5518 76.3805 97.6902 75.9189 97.9277 75.507C98.1653 75.0951 98.4955 74.7442 98.8923 74.4821L226.942 0.617124C227.087 0.523284 227.253 0.468754 227.425 0.458923C227.789 0.458923 227.844 0.886069 227.844 1.13919V183.587C227.816 184.061 227.678 184.523 227.44 184.935C227.203 185.347 226.872 185.698 226.476 185.96L98.4335 259.817C98.2882 259.909 98.1224 259.963 97.9509 259.975Z" fill="#FAFAFA"/>
<path d="M227.362 0.933398C227.373 1.00148 227.373 1.07098 227.362 1.13906V183.587C227.329 183.979 227.21 184.359 227.013 184.699C226.816 185.04 226.546 185.332 226.222 185.556L98.204 259.421C98.1428 259.458 98.076 259.485 98.0063 259.5C98 259.432 98 259.363 98.0063 259.295V76.855C98.0365 76.4633 98.1537 76.0832 98.3494 75.7424C98.5451 75.4017 98.8144 75.1089 99.1376 74.8854L227.172 1.0125C227.231 0.977464 227.295 0.950844 227.362 0.933398ZM227.425 0C227.173 0.0061415 226.927 0.0799033 226.713 0.213574L98.6629 74.0865C98.2003 74.3913 97.816 74.8008 97.5411 75.2818C97.2662 75.7628 97.1085 76.3017 97.0807 76.855V259.295C97.0807 260.014 97.4367 260.434 97.9667 260.434C98.2183 260.424 98.4633 260.35 98.6787 260.22L226.737 186.347C227.197 186.041 227.58 185.631 227.855 185.15C228.13 184.669 228.289 184.131 228.319 183.579V1.13906C228.319 0.411327 227.955 0 227.433 0H227.425Z" fill="#E6E6E6"/>
<path d="M108.315 81.5062L145.813 59.8561V103.148L108.315 124.798V81.5062Z" fill="#044366"/>
<path d="M140.189 70.6772V83.6656L139.01 84.3222V80.3671C139.01 78.1681 137.222 77.4245 135.015 78.6981L119.145 87.8739C116.938 89.1474 115.142 91.9634 115.142 94.1545V98.1096L113.971 98.8136V85.833L140.189 70.6772Z" fill="#FAFAFA"/>
<path d="M132.958 103.781C131.027 104.896 129.469 103.726 129.469 101.179V80.3434L124.683 82.9696V103.963C124.683 106.51 123.1 109.5 121.194 110.584L117.713 112.593V113.977L136.462 103.148V101.772L132.958 103.781Z" fill="#FAFAFA"/>
<path d="M153.313 57.6967C153.313 58.8911 154.389 59.2787 155.687 58.4877L214.64 24.474C215.283 24.1044 215.831 23.5916 216.242 22.9756C216.654 22.3596 216.918 21.657 217.014 20.9224C217.014 19.7279 215.938 19.3799 214.64 20.1314L155.687 54.145C155.043 54.5133 154.494 55.0256 154.082 55.6419C153.671 56.2582 153.407 56.9615 153.313 57.6967Z" fill="#E0E0E0"/>
<path d="M153.313 70.6772C153.313 71.8795 154.389 72.2592 155.687 71.4682L214.64 37.4546C215.283 37.0849 215.831 36.5721 216.242 35.9561C216.654 35.3401 216.918 34.6375 217.014 33.9029C217.014 32.7085 215.938 32.3209 214.64 33.1119L155.687 67.1255C155.043 67.4938 154.494 68.0062 154.082 68.6224C153.671 69.2387 153.407 69.942 153.313 70.6772Z" fill="#E0E0E0"/>
<path d="M153.313 83.6656C153.313 84.868 154.389 85.2477 155.687 84.4567L214.64 50.443C215.283 50.0733 215.831 49.5606 216.242 48.9446C216.654 48.3286 216.918 47.626 217.014 46.8914C217.014 45.6969 215.938 45.3093 214.64 46.1004L155.687 80.114C155.043 80.4822 154.494 80.9946 154.082 81.6109C153.671 82.2271 153.407 82.9305 153.313 83.6656Z" fill="#E0E0E0"/>
<path d="M153.313 96.6541C153.313 97.8485 154.389 98.2361 155.687 97.4451L214.64 63.4315C215.283 63.0618 215.831 62.549 216.242 61.9331C216.654 61.3171 216.918 60.6144 217.014 59.8798C217.014 58.6854 215.938 58.3373 214.64 59.0888L155.687 93.1025C155.043 93.4707 154.494 93.9831 154.082 94.5994C153.671 95.2156 153.407 95.919 153.313 96.6541Z" fill="#E0E0E0"/>
<path d="M108.315 135.627C108.315 136.822 109.39 137.17 110.688 136.418L214.64 76.4595C215.283 76.0898 215.831 75.5771 216.242 74.9611C216.654 74.3451 216.918 73.6425 217.014 72.9078C217.014 71.7134 215.938 71.3654 214.64 72.1168L110.688 132.084C110.047 132.453 109.499 132.964 109.088 133.579C108.676 134.193 108.411 134.894 108.315 135.627Z" fill="#E0E0E0"/>
<path d="M108.315 148.616C108.315 149.81 109.39 150.198 110.688 149.407L214.664 89.4558C215.306 89.0862 215.854 88.5734 216.266 87.9574C216.678 87.3414 216.942 86.6388 217.037 85.9042C217.037 84.7097 215.962 84.3617 214.664 85.1132L110.712 145.064C110.065 145.431 109.512 145.943 109.096 146.559C108.681 147.175 108.413 147.879 108.315 148.616Z" fill="#E0E0E0"/>
<path d="M108.315 161.604C108.315 162.799 109.39 163.186 110.688 162.395L214.64 102.436C215.283 102.067 215.831 101.554 216.242 100.938C216.654 100.322 216.918 99.6194 217.014 98.8848C217.014 97.6903 215.938 97.3027 214.64 98.0938L110.688 158.061C110.047 158.429 109.499 158.941 109.088 159.556C108.676 160.17 108.411 160.871 108.315 161.604Z" fill="#E0E0E0"/>
<path d="M108.315 174.585C108.315 175.779 109.39 176.167 110.688 175.376L214.64 115.409C215.283 115.042 215.831 114.53 216.243 113.916C216.655 113.301 216.919 112.599 217.014 111.865C217.014 110.663 215.938 110.283 214.64 111.074L110.688 171.041C110.046 171.409 109.497 171.92 109.085 172.535C108.674 173.149 108.41 173.851 108.315 174.585Z" fill="#E0E0E0"/>
<path d="M108.315 187.542C108.315 188.736 109.39 189.084 110.688 188.333L214.64 128.366C215.283 127.996 215.831 127.483 216.242 126.867C216.654 126.251 216.918 125.549 217.014 124.814C217.014 123.62 215.938 123.272 214.64 124.023L110.688 183.982C110.045 184.353 109.496 184.867 109.084 185.484C108.673 186.101 108.409 186.806 108.315 187.542Z" fill="#E0E0E0"/>
<path d="M108.315 200.562C108.315 201.756 109.39 202.144 110.688 201.353L214.64 141.394C215.283 141.024 215.831 140.512 216.242 139.896C216.654 139.28 216.918 138.577 217.014 137.842C217.014 136.648 215.938 136.26 214.64 137.051L110.712 197.034C110.068 197.399 109.517 197.906 109.101 198.518C108.686 199.13 108.416 199.829 108.315 200.562Z" fill="#E0E0E0"/>
<path d="M108.315 213.542C108.315 214.737 109.39 215.124 110.688 214.333L214.64 154.367C215.283 153.999 215.831 153.488 216.243 152.873C216.655 152.258 216.919 151.557 217.014 150.823C217.014 149.62 215.938 149.241 214.64 150.032L110.688 209.999C110.046 210.366 109.497 210.877 109.085 211.492C108.674 212.107 108.41 212.809 108.315 213.542Z" fill="#E0E0E0"/>
<path d="M108.315 226.531C108.315 227.725 109.39 228.073 110.688 227.322L214.64 167.355C215.283 166.985 215.831 166.473 216.242 165.857C216.654 165.241 216.918 164.538 217.014 163.803C217.014 162.609 215.938 162.221 214.64 163.012L110.688 222.971C110.045 223.342 109.496 223.856 109.084 224.473C108.673 225.091 108.409 225.795 108.315 226.531Z" fill="#E0E0E0"/>
<path d="M108.315 239.519C108.315 240.714 109.39 241.101 110.688 240.31L214.64 180.351C215.283 179.982 215.831 179.469 216.242 178.853C216.654 178.237 216.918 177.534 217.014 176.8C217.014 175.605 215.938 175.257 214.64 176.009L110.688 235.976C110.047 236.344 109.499 236.856 109.088 237.471C108.676 238.085 108.411 238.786 108.315 239.519Z" fill="#E0E0E0"/>
<path d="M268.405 145.982C268.435 141.373 269.75 136.864 272.202 132.962V125.613C272.235 125.238 272.177 124.861 272.032 124.514C271.887 124.167 271.661 123.86 271.371 123.62C271.299 123.57 271.222 123.528 271.142 123.493L247.306 109.706C246.945 109.549 246.55 109.488 246.159 109.53C245.768 109.571 245.394 109.714 245.075 109.943L226.286 120.788C225.38 121.413 224.629 122.237 224.09 123.196C223.551 124.156 223.239 125.226 223.177 126.325C222.963 131.704 221.207 141.663 211.705 147.145C202.204 152.626 200.424 144.597 200.226 139.472C200.147 137.431 198.889 136.608 197.125 137.629L178.328 148.473C177.403 149.084 176.635 149.903 176.085 150.865C175.536 151.826 175.22 152.904 175.164 154.011V161.359C175.164 161.359 178.961 162.419 178.961 169.997C178.961 177.575 173.091 191.315 173.091 210.386C173.091 219.934 176.121 227.907 182.482 231.57L206.365 245.349C212.694 249.083 222.393 248.513 235.739 240.777C262.305 225.439 274.378 198.687 274.378 179.624C274.378 160.56 268.405 153.528 268.405 145.982Z" fill="#044366"/>
<path d="M244.996 109.919L226.207 120.764C225.3 121.388 224.548 122.212 224.009 123.172C223.47 124.132 223.158 125.202 223.097 126.301C222.9 131.261 221.397 140.105 213.723 145.744L199.269 137.399L199.19 137.36C198.843 137.205 198.462 137.146 198.084 137.189C197.707 137.232 197.349 137.376 197.046 137.605L178.249 148.45C177.987 148.602 177.741 148.78 177.513 148.98C176.902 149.504 176.385 150.13 175.987 150.831C175.415 151.79 175.094 152.878 175.053 153.995V161.343L176.089 161.944C177.229 162.862 178.85 165.029 178.85 169.973C178.85 177.551 172.98 191.331 172.98 210.362C172.98 219.91 176.01 227.899 182.371 231.562L206.168 245.286C199.926 241.576 196.959 233.666 196.959 224.205C196.959 205.134 202.821 191.386 202.821 183.808C202.821 176.23 199.024 175.178 199.024 175.178V167.83C199.084 166.724 199.402 165.648 199.951 164.687C200.501 163.726 201.267 162.906 202.188 162.292L220.985 151.448C221.279 151.229 221.622 151.088 221.985 151.039C222.347 150.989 222.716 151.032 223.058 151.163H223.137C223.458 151.402 223.713 151.718 223.879 152.081C224.045 152.445 224.116 152.845 224.086 153.243C224.276 158.377 226.001 166.445 235.565 160.924C245.13 155.403 246.823 145.483 247.045 140.105C247.103 139.006 247.413 137.935 247.951 136.975C248.489 136.015 249.24 135.192 250.146 134.567L268.935 123.723C269.242 123.504 269.598 123.364 269.972 123.316C270.346 123.268 270.726 123.312 271.079 123.446L247.306 109.706C246.937 109.531 246.528 109.459 246.121 109.497C245.715 109.534 245.326 109.68 244.996 109.919Z" fill="#044366"/>
<path opacity="0.1" d="M176.105 161.937L199.048 175.17V167.822C199.083 166.703 199.408 165.614 199.989 164.658L175.987 150.839C175.413 151.798 175.092 152.886 175.053 154.003V161.351L176.105 161.937Z" fill="black"/>
<path opacity="0.4" d="M213.723 145.744L199.269 137.399L199.19 137.36C198.843 137.205 198.462 137.146 198.084 137.189C197.707 137.232 197.349 137.376 197.046 137.605L178.249 148.45C177.987 148.602 177.741 148.78 177.513 148.98C176.902 149.504 176.385 150.13 175.987 150.831L199.997 164.689C200.534 163.719 201.31 162.902 202.252 162.316L221.049 151.471C221.342 151.253 221.686 151.112 222.048 151.062C222.411 151.013 222.78 151.055 223.121 151.187L213.723 145.744Z" fill="white"/>
<path opacity="0.4" d="M271.142 123.469L247.306 109.706C246.941 109.537 246.538 109.468 246.138 109.506C245.737 109.543 245.354 109.686 245.027 109.919L226.238 120.764C225.313 121.347 224.559 122.166 224.055 123.137L248.057 136.988C248.561 136.017 249.315 135.198 250.241 134.615L269.03 123.77C269.331 123.553 269.681 123.412 270.049 123.359C270.417 123.307 270.792 123.345 271.142 123.469Z" fill="white"/>
<path opacity="0.1" d="M248.025 136.996C247.487 137.969 247.171 139.05 247.1 140.16C246.886 145.539 245.122 155.498 235.629 160.979C226.135 166.461 224.34 158.432 224.15 153.299C224.179 152.9 224.108 152.5 223.942 152.137C223.776 151.773 223.521 151.457 223.2 151.218H223.121L213.723 145.792C221.397 140.152 222.9 131.308 223.097 126.349C223.166 125.238 223.482 124.157 224.023 123.185L248.025 136.996Z" fill="black"/>
<path opacity="0.2" d="M206.168 245.286L182.339 231.546C176.01 227.883 172.949 219.894 172.949 210.347C172.949 191.283 178.819 177.535 178.819 169.957C178.819 165.053 177.237 162.886 176.089 161.944L199.032 175.178C199.032 175.178 202.829 176.238 202.829 183.808C202.829 191.378 196.967 205.166 196.967 224.205C196.991 233.674 199.957 241.584 206.168 245.286Z" fill="black"/>
<path d="M241.08 212.649L230.795 218.581L232.377 199.984C231.143 199.336 230.36 197.738 230.36 195.444C230.36 191.346 232.852 186.592 235.898 184.813C238.943 183.033 241.436 184.923 241.436 189.021C241.372 191.447 240.68 193.816 239.426 195.895L241.08 212.649Z" fill="#455A64"/>
<path d="M241.08 212.648L231.768 207.27L230.795 218.581L241.08 212.648Z" fill="#37474F"/>
<path d="M235.937 184.813C233.928 185.976 232.172 188.412 231.191 191.141L239.481 195.926C240.735 193.848 241.427 191.479 241.491 189.053C241.499 184.923 239.007 183.041 235.937 184.813Z" fill="#37474F"/>
<path d="M247.559 76.6967C242.472 73.7621 236.088 74.0943 230.02 77.5906L207.607 90.5316C197.893 96.1399 190.567 108.828 190.567 120.036V150.293C190.567 151.543 191.405 152.8 193.059 153.757C194.918 154.701 196.974 155.193 199.059 155.193C201.145 155.193 203.201 154.701 205.06 153.757C206.713 152.8 207.552 151.543 207.552 150.293V120.036C207.552 114.879 211.626 107.823 216.096 105.244L238.508 92.3035H238.564V122.615C238.564 123.873 239.402 125.123 241.056 126.08C242.915 127.023 244.971 127.515 247.056 127.515C249.142 127.515 251.198 127.023 253.057 126.08C254.71 125.123 255.549 123.873 255.549 122.615V92.3351C255.549 85.3267 252.638 79.6314 247.559 76.6967Z" fill="#37474F"/>
<path d="M238.603 92.3352V122.584C238.603 123.841 239.442 125.091 241.096 126.048C241.882 126.488 242.723 126.824 243.596 127.045V89.3926L238.603 92.2719V92.3352Z" fill="#263238"/>
<path d="M340.04 124.047C338.727 123.667 337.667 122.924 335.776 122.544C334.46 122.381 333.203 121.9 332.113 121.144C330.689 120.187 327.897 116.073 325.689 111.976C323.381 107.317 321.883 102.299 321.259 97.1366C320.745 90.9113 319.305 82.5819 318.933 78.9433C318.332 73.2005 316.623 70.2421 309.986 70.6455C309.986 70.6455 311.766 72.6705 311.251 77.8596C310.737 83.0486 312.232 92.0978 313.356 99.122C313.902 102.523 315.682 107.19 319.012 113.424C321.33 117.774 323.435 121.444 326.67 125.162C327.548 126.175 327.952 127.148 329.408 129.283C329.954 130.202 330.637 131.031 331.433 131.743C332.46 132.577 333.604 133.256 334.827 133.761C336.373 134.407 338.065 134.623 339.724 134.385C340.625 134.269 341.486 133.944 342.239 133.436C342.999 132.905 343.544 132.119 343.774 131.221C343.822 131.043 343.822 130.854 343.774 130.676C343.679 130.351 343.355 130.161 343.062 129.995C341.316 129.193 339.613 128.3 337.96 127.322C336.662 126.428 335.871 125.621 336.172 125.542C336.472 125.463 337.208 126.04 338.545 126.214C339.882 126.388 341.227 125.763 341.258 125.028C341.29 124.292 341.353 124.427 340.04 124.047Z" fill="#9A4A4D"/>
<path d="M309.535 70.2895C311.908 70.1313 317.019 69.4985 318.553 74.3158C320.088 79.1331 321.86 97.1366 322.335 99.4226C323.121 102.886 324.179 106.282 325.499 109.579C326.892 112.996 330.934 119.965 330.934 119.965L325.895 124.26C325.895 124.26 318.838 116.073 315.215 107.38C311.592 98.687 310.468 87.4625 310.286 80.7784C310.236 77.2706 309.985 73.7687 309.535 70.2895Z" fill="#044366"/>
<path opacity="0.1" d="M309.535 70.2895C311.908 70.1313 317.019 69.4985 318.553 74.3158C320.088 79.1331 321.86 97.1366 322.335 99.4226C323.121 102.886 324.179 106.282 325.499 109.579C326.892 112.996 330.934 119.965 330.934 119.965L325.895 124.26C325.895 124.26 318.838 116.073 315.215 107.38C311.592 98.687 310.468 87.4625 310.286 80.7784C310.236 77.2706 309.985 73.7687 309.535 70.2895Z" fill="black"/>
<path d="M314.036 216.928L321.077 217.173L321.433 204.398L314.384 204.153L314.036 216.928Z" fill="#9A4A4D"/>
<path d="M287.668 225.692H294.717V213.621H287.668V225.692Z" fill="#9A4A4D"/>
<path d="M294.717 222.22V221.207C295.39 221.5 296.956 227.48 299.757 230.035C301.98 232.06 305.01 234.401 305.785 236.664C306.56 238.926 301.56 240.318 299.456 239.946C297.043 239.519 292.858 237.819 291.806 236.245C290.754 234.67 290.263 232.345 289.432 231.19C288.602 230.035 286.616 228.746 286.149 227.409C285.896 226.673 286.197 225.036 286.553 223.707C286.909 222.378 287.241 221.089 287.66 221.207V221.998C288.665 222.788 289.911 223.21 291.189 223.193C292.217 223.209 294.725 223.003 294.717 222.22Z" fill="#263238"/>
<path d="M321.156 214.998C321.52 214.998 321.821 215.528 322.628 216.398C323.831 217.619 325.233 218.627 326.773 219.38C329.415 220.709 334.55 222.742 336.868 223.786C338.323 224.435 338.252 226.159 336.757 227.187C335.262 228.216 331.631 228.904 327.264 227.931C324.89 227.401 321.813 225.218 319.859 225.336C317.905 225.455 314.258 225.423 312.818 224.427C311.378 223.43 311.948 221.318 312.359 219.491C312.802 217.505 313.435 214.46 314.099 214.594V215.219C314.946 216.509 319.265 217.031 321.125 216.081L321.156 214.998Z" fill="#263238"/>
<path d="M290.675 113.637C285.137 124.98 290.603 167.758 290.603 167.758C290.406 169.609 288.19 173.224 287.209 181.395C286.054 191.046 287.051 215.852 287.051 215.852C287.051 215.852 291.656 217.893 295.405 216.2C295.405 216.2 302.027 179.386 303.467 169.799C304.717 161.43 307.177 143.015 307.177 143.015L312.335 169.957C311.425 172.642 310.748 175.399 310.31 178.2C309.63 183.84 313.68 210.165 313.68 210.165C316.185 211.215 318.969 211.402 321.591 210.695C321.591 210.695 323.965 175.756 324.661 168.953C325.784 157.531 322.469 121.8 321.299 114.325L290.675 113.637Z" fill="#263238"/>
<path d="M298.048 70.5427C296.268 70.7483 292.154 71.4682 292.154 71.4682C289.425 72.4648 289.717 74.1418 288.989 76.7601C288.056 80.0032 288.665 85.7934 289.781 88.9812L295.065 104.256C293.087 109.002 291.189 110.41 290.239 114.041C298.87 120.44 317.422 120.06 321.409 114.665C321.576 113.519 320.057 100.38 319.424 94.5342C322.113 89.6536 323.142 86.1573 321.734 82.4158C319.321 76.0165 312.707 70.0364 309.566 70.2896L298.048 70.5427Z" fill="#044366"/>
<path d="M303.412 65.0451H300.809C297.168 65.0451 293.677 63.5992 291.103 61.0254C288.529 58.4516 287.083 54.9609 287.083 51.321C287.083 47.6623 288.537 44.1534 291.124 41.5662C293.711 38.9791 297.221 37.5257 300.88 37.5257H303.34C307 37.5257 310.509 38.9791 313.096 41.5662C315.684 44.1534 317.137 47.6623 317.137 51.321C317.137 54.9609 315.691 58.4516 313.117 61.0254C310.543 63.5992 307.052 65.0451 303.412 65.0451Z" fill="#263238"/>
<path d="M280.05 71.3575C281.161 71.3585 282.262 71.1405 283.289 70.7161C284.316 70.2916 285.249 69.6689 286.035 68.8836C286.821 68.0983 287.445 67.1657 287.87 66.1393C288.296 65.1129 288.515 64.0126 288.515 62.9015V44.7794C286.27 44.7794 284.117 45.6711 282.529 47.2584C280.942 48.8457 280.05 50.9985 280.05 53.2432V71.3575Z" fill="#263238"/>
<path d="M312.644 42.5328C314.297 43.5137 316.346 47.6823 316.141 56.4151C315.974 63.8111 313.569 65.6384 312.367 66.1684C311.164 66.6983 308.839 66.374 306.576 65.9943V70.4715L306.125 75.6843L297.28 71.6422V60.8765C297.28 60.8765 295.754 62.9094 293.261 61.2562C290.769 59.6029 290.675 55.4976 292.122 54.0263C293.57 52.555 296.703 53.0217 297.28 55.0546C297.28 55.0546 298.293 52.9268 303.467 51.1549C308.918 49.2881 310.729 46.0133 312.644 42.5328Z" fill="#B16668"/>
<path d="M307.051 54.5565C307.052 54.7395 307 54.9187 306.9 55.0721C306.8 55.2255 306.658 55.3462 306.49 55.4192C306.322 55.4923 306.137 55.5144 305.957 55.483C305.777 55.4515 305.61 55.3679 305.477 55.2423C305.343 55.1168 305.25 54.9549 305.208 54.7769C305.167 54.5988 305.178 54.4124 305.241 54.2407C305.304 54.069 305.417 53.9197 305.564 53.8113C305.711 53.7029 305.887 53.6401 306.07 53.6308C306.322 53.6244 306.567 53.7181 306.751 53.8915C306.935 54.0649 307.043 54.304 307.051 54.5565Z" fill="#263238"/>
<path d="M308.127 60.829L310.287 61.5173C310.25 61.6634 310.185 61.8006 310.093 61.9204C310.002 62.0402 309.888 62.1402 309.757 62.2142C309.626 62.2883 309.481 62.3348 309.331 62.3511C309.181 62.3673 309.03 62.3528 308.886 62.3086C308.591 62.2107 308.346 62.0008 308.204 61.7241C308.062 61.4474 308.034 61.1259 308.127 60.829Z" fill="#9A4A4D"/>
<path d="M314.677 51.6933L312.794 50.3877C312.873 50.2585 312.978 50.1471 313.103 50.0604C313.227 49.9737 313.368 49.9136 313.516 49.8838C313.665 49.8541 313.818 49.8554 313.966 49.8877C314.114 49.9199 314.254 49.9824 314.377 50.0712C314.627 50.2499 314.799 50.5189 314.855 50.8215C314.911 51.1241 314.847 51.4367 314.677 51.6933Z" fill="#263238"/>
<path d="M314.25 53.8604C314.266 53.988 314.256 54.1176 314.22 54.2411C314.184 54.3646 314.123 54.4793 314.04 54.578C313.958 54.6767 313.856 54.7573 313.741 54.8147C313.626 54.8722 313.5 54.9052 313.372 54.9118C313.243 54.9183 313.115 54.8983 312.994 54.8529C312.874 54.8074 312.764 54.7376 312.672 54.6478C312.58 54.558 312.508 54.4502 312.459 54.331C312.411 54.2118 312.387 54.0839 312.391 53.9554C312.381 53.831 312.396 53.706 312.435 53.5875C312.474 53.4691 312.536 53.3596 312.618 53.2653C312.7 53.1711 312.799 53.0941 312.911 53.0386C313.023 52.9832 313.144 52.9506 313.269 52.9426C313.52 52.9361 313.764 53.0288 313.948 53.2005C314.131 53.3722 314.24 53.6093 314.25 53.8604Z" fill="#263238"/>
<path d="M309.701 53.346L309.851 58.9464L312.795 58.0367L309.701 53.346Z" fill="#9A4A4D"/>
<path d="M306.576 65.9943C304.203 65.6858 299.306 64.2778 298.538 62.3398C298.844 63.3213 299.443 64.1855 300.255 64.8157C301.719 66.0655 306.584 67.4814 306.584 67.4814L306.576 65.9943Z" fill="#9A4A4D"/>
<path d="M307.177 143.015L309.867 129.956C309.867 129.956 315.484 129.014 318.466 126.887C316.773 128.939 314.58 130.521 312.098 131.482L309.013 143.806L309.804 156.621L307.177 143.015Z" fill="black"/>
<path d="M297.098 46.5195C297.098 46.5195 307.731 53.7573 315.12 50.1424C322.509 46.5274 312.937 41.4412 312.937 41.4412L297.098 46.5195Z" fill="#37474F"/>
<path d="M312.857 31.3479C306.528 29.576 299.67 28.437 291.695 31.3479C283.721 34.2588 281.98 39.1789 281.98 39.1789C281.98 39.1789 290.097 42.3905 296.703 41.3068C303.309 40.2231 312.857 31.3479 312.857 31.3479Z" fill="#044366"/>
<path opacity="0.4" d="M312.857 31.3479C306.528 29.576 299.67 28.437 291.695 31.3479C283.721 34.2588 281.98 39.1789 281.98 39.1789C281.98 39.1789 290.097 42.3905 296.703 41.3068C303.309 40.2231 312.857 31.3479 312.857 31.3479Z" fill="white"/>
<path d="M286.418 42.1611C286.418 42.1611 282.36 40.231 281.98 39.1631C285.137 39.5226 288.333 39.3163 291.418 38.5541C296.695 37.2805 302.185 32.1547 308.127 31.253C314.068 30.3512 316.599 33.3808 316.599 33.3808C316.599 33.3808 315.286 37.6048 313.229 40.1677C313.229 40.1677 311.394 44.1782 304.4 45.1037C297.407 46.0291 286.418 42.1611 286.418 42.1611Z" fill="#044366"/>
<path d="M286.418 42.161L286.751 43.3159C286.877 43.7068 287.083 44.0673 287.355 44.375C287.627 44.6826 287.96 44.9307 288.333 45.1036C293.493 47.158 299.131 47.7066 304.59 46.6856C309.503 45.776 311.71 44.5183 312.604 43.569C312.924 43.2881 313.165 42.929 313.304 42.5268C313.442 42.1246 313.474 41.6932 313.395 41.2751L313.229 40.1519C313.229 40.1519 311.71 42.2718 303.68 43.8459C295.651 45.42 286.418 42.161 286.418 42.161Z" fill="#455A64"/>
<path d="M308.744 33.6181C308.681 34.86 307.375 37.1381 305.642 36.0623V39.2264C305.642 41.1644 306.782 41.8367 308.625 41.4491C309.543 41.2757 310.369 40.7836 310.958 40.0598C311.548 39.336 311.862 38.4272 311.846 37.4941C311.846 36.9008 311.846 34.8046 311.846 34.8046C310.485 36.6398 308.72 34.0848 308.744 33.6181Z" fill="#FAFAFA"/>
<path d="M297.28 56.9688V52.7686H298.918V55.3314C298.918 55.7657 298.746 56.1822 298.438 56.4893C298.131 56.7963 297.715 56.9688 297.28 56.9688Z" fill="#263238"/>
<path d="M306.125 75.6526L297.28 69.2059V67.6238C297.28 67.6238 295.421 67.9403 294.97 71.484C296.354 74.5411 298.721 77.0472 301.695 78.6031L303.522 75.3679L306.125 75.6526Z" fill="#044366"/>
<path opacity="0.1" d="M306.125 75.6526L297.28 69.2059V67.6238C297.28 67.6238 295.421 67.9403 294.97 71.484C296.354 74.5411 298.721 77.0472 301.695 78.6031L303.522 75.3679L306.125 75.6526Z" fill="black"/>
<path d="M306.576 67.9877C307.725 68.173 308.76 68.7932 309.464 69.72C310.334 71.1517 310.137 76.6097 310.137 76.6097L307.818 73.9677L306.125 75.6526C306.315 73.8333 306.576 70.4398 306.576 70.4398V67.9877Z" fill="#044366"/>
<path opacity="0.1" d="M306.576 67.9877C307.725 68.173 308.76 68.7932 309.464 69.72C310.334 71.1517 310.137 76.6097 310.137 76.6097L307.818 73.9677L306.125 75.6526C306.315 73.8333 306.576 70.4398 306.576 70.4398V67.9877Z" fill="black"/>
<path d="M299.298 132.803C298.198 132.012 297.478 130.921 295.833 129.9C294.654 129.289 293.643 128.399 292.89 127.306C291.893 125.906 290.714 121.081 290.081 116.469C289.33 111.027 290.16 103.639 290.548 100.585C291.405 94.7221 292.594 88.912 294.108 83.1831C294.171 82.922 292.747 74.9644 291.181 73.6909C291.181 73.6909 289.385 73.4378 287.083 78.1206C284.781 82.8034 283.649 93.1499 283.017 100.103C282.494 105.248 282.59 110.437 283.301 115.559C283.95 120.448 284.638 124.616 286.371 129.236C286.838 130.494 286.877 131.546 287.494 134.053C287.688 135.103 288.035 136.118 288.523 137.067C289.198 138.205 290.031 139.241 290.999 140.144C292.224 141.29 293.735 142.085 295.374 142.446C296.268 142.659 297.201 142.659 298.095 142.446C298.996 142.199 299.781 141.642 300.31 140.872C300.424 140.722 300.495 140.544 300.516 140.358C300.494 140.02 300.341 139.705 300.089 139.48C298.737 138.117 297.456 136.686 296.252 135.192C295.342 133.895 294.883 132.859 295.2 132.898C295.516 132.938 295.991 133.729 297.209 134.37C298.427 135.01 299.883 134.884 300.176 134.204C300.469 133.523 300.397 133.61 299.298 132.803Z" fill="#9A4A4D"/>
<path d="M292.027 71.484C292.027 71.484 295.983 79.4653 294.219 86.5133C292.597 92.9522 291.679 101.195 291.331 103.504C290.844 107.021 290.633 110.57 290.698 114.12C290.809 117.806 292.162 125.748 292.162 125.748L285.967 128.042C285.967 128.042 282.218 117.901 281.862 108.488C281.506 99.0746 282.415 87.9213 283.942 81.3875C284.615 78.5715 285.406 72.6152 292.027 71.484Z" fill="#044366"/>
<path opacity="0.1" d="M292.027 71.484C292.027 71.484 295.983 79.4653 294.219 86.5133C292.597 92.9522 291.679 101.195 291.331 103.504C290.844 107.021 290.633 110.57 290.698 114.12C290.809 117.806 292.162 125.748 292.162 125.748L285.967 128.042C285.967 128.042 282.218 117.901 281.862 108.488C281.506 99.0746 282.415 87.9213 283.942 81.3875C284.615 78.5715 285.406 72.6152 292.027 71.484Z" fill="black"/>
<path d="M298.396 85.0663C298.396 85.0663 304.298 84.8211 306.726 83.8795V82.7006C304.266 83.6421 298.396 83.9191 298.396 83.9191V85.0663Z" fill="#37474F"/>
<path d="M285.501 80.7549C285.501 80.7549 287.36 80.1061 289.924 81.5461L289.987 81.285C290.016 81.1497 289.998 81.0087 289.938 80.8841C289.878 80.7596 289.778 80.6585 289.655 80.5967C288.552 80.0171 287.299 79.7879 286.062 79.9399C285.946 79.9604 285.838 80.0148 285.752 80.0965C285.666 80.1781 285.606 80.2833 285.58 80.3989L285.501 80.7549Z" fill="#37474F"/>
<path d="M288.782 84.3668C289.09 82.9852 288.499 81.6781 287.463 81.4472C286.426 81.2163 285.337 82.1491 285.029 83.5307C284.721 84.9123 285.312 86.2195 286.348 86.4503C287.385 86.6812 288.474 85.7484 288.782 84.3668Z" fill="#37474F"/>
</svg>
