<svg width="78" height="78" viewBox="0 0 78 78" fill="none" xmlns="http://www.w3.org/2000/svg">
<path fill-rule="evenodd" clip-rule="evenodd" d="M45.5709 68.4064C46.0377 68.0508 46.579 67.8055 47.1492 67.6667C62.1697 64.0087 73.3199 50.4665 73.3199 34.32C73.3199 15.3656 57.9543 0 38.9999 0C20.0455 0 4.67993 15.3656 4.67993 34.32C4.67993 47.018 11.5759 58.1053 21.8272 64.0412C22.5604 64.4658 23.1679 65.0833 23.5393 65.8447L28.2811 75.5654C29.3877 77.8339 32.2928 78.5231 34.3004 76.9935L45.5709 68.4064Z" fill="#03314B"/>
<ellipse cx="38.8213" cy="46.8695" rx="2.43478" ry="2.43478" fill="white"/>
<path d="M43.6304 20.4315C41.8412 19.5492 39.8304 19.2172 37.8525 19.4776C35.8745 19.738 34.0182 20.5791 32.5183 21.8945C31.5445 22.7485 30.7493 23.7775 30.1699 24.9217C29.6493 25.95 30.3284 27.1094 31.4417 27.4077L32.1136 27.5878C33.2269 27.8861 34.3448 27.1812 35.0532 26.272C35.2544 26.0136 35.4805 25.7736 35.729 25.5556C36.5048 24.8752 37.465 24.4402 38.4881 24.3055C39.5111 24.1708 40.5512 24.3425 41.4767 24.7989C42.4022 25.2553 43.1715 25.9759 43.6875 26.8696C44.2034 27.7632 44.4428 28.7898 44.3753 29.8195C44.3078 30.8492 43.9365 31.8357 43.3083 32.6544C42.6801 33.4731 41.8233 34.0871 40.8462 34.4188C40.0433 34.6956 39.8273 34.6956 38.9998 34.6956L38.3042 34.6956C37.1516 34.6956 36.2172 35.63 36.2172 36.7826V40.2609C36.2172 41.4135 37.1516 42.3478 38.3042 42.3478H38.9999C40.1524 42.3478 41.0868 41.4135 41.0868 40.2609C41.0868 39.7502 41.4568 39.3183 41.9473 39.1763C42.0974 39.1328 42.2518 39.0841 42.4114 39.0299C44.3006 38.3886 45.9571 37.2016 47.1716 35.6188C48.3861 34.0361 49.104 32.1287 49.2344 30.138C49.3649 28.1472 48.9021 26.1625 47.9046 24.4348C46.9071 22.7071 45.4197 21.3139 43.6304 20.4315Z" fill="white"/>
</svg>
